<svg width="24" height="24" viewBox="0 0 24 24" fill="none" xmlns="http://www.w3.org/2000/svg">
<path d="M18.75 10.5V18.8334C18.75 18.921 18.7328 19.0076 18.6993 19.0885C18.6658 19.1694 18.6167 19.2429 18.5548 19.3048C18.4929 19.3667 18.4194 19.4158 18.3385 19.4493C18.2576 19.4828 18.171 19.5 18.0834 19.5H3.75C3.55109 19.5 3.36032 19.421 3.21967 19.2803C3.07902 19.1397 3 18.9489 3 18.75V8.25C3 8.05109 3.07902 7.86032 3.21967 7.71967C3.36032 7.57902 3.55109 7.5 3.75 7.5H7.99969C8.16197 7.5 8.31987 7.55263 8.44969 7.65L11.25 9.75H18C18.1989 9.75 18.3897 9.82902 18.5303 9.96967C18.671 10.1103 18.75 10.3011 18.75 10.5Z" stroke="white" stroke-width="1.5" stroke-linecap="round" stroke-linejoin="round"/>
<path d="M18.75 10.5V18.8334C18.75 18.921 18.7328 19.0076 18.6993 19.0885C18.6658 19.1694 18.6167 19.2429 18.5548 19.3048C18.4929 19.3667 18.4194 19.4158 18.3385 19.4493C18.2576 19.4828 18.171 19.5 18.0834 19.5H3.75C3.55109 19.5 3.36032 19.421 3.21967 19.2803C3.07902 19.1397 3 18.9489 3 18.75V8.25C3 8.05109 3.07902 7.86032 3.21967 7.71967C3.36032 7.57902 3.55109 7.5 3.75 7.5H7.99969C8.16197 7.5 8.31987 7.55263 8.44969 7.65L11.25 9.75H18C18.1989 9.75 18.3897 9.82902 18.5303 9.96967C18.671 10.1103 18.75 10.3011 18.75 10.5Z" stroke="white" stroke-width="1.5" stroke-linecap="round" stroke-linejoin="round"/>
<path d="M6 7.5V5.25C6 5.05109 6.07902 4.86032 6.21967 4.71967C6.36032 4.57902 6.55109 4.5 6.75 4.5H10.9997C11.162 4.5 11.3199 4.55263 11.4497 4.65L14.25 6.75H21C21.1989 6.75 21.3897 6.82902 21.5303 6.96967C21.671 7.11032 21.75 7.30109 21.75 7.5V15.8334C21.75 16.0102 21.6798 16.1798 21.5548 16.3048C21.4298 16.4298 21.2602 16.5 21.0834 16.5H18.75" stroke="white" stroke-width="1.5" stroke-linecap="round" stroke-linejoin="round"/>
</svg>
